<svg xmlns="http://www.w3.org/2000/svg" version="1.1" xmlns:xlink="http://www.w3.org/1999/xlink" viewBox="0 0 200 200"><rect width="200" height="200" fill="url('#gradient')"></rect><defs><linearGradient id="gradient" gradientTransform="rotate(360 0.5 0.5)"><stop offset="0%" stop-color="#ffffff"></stop><stop offset="100%" stop-color="#ffffff"></stop></linearGradient></defs><g><g fill="#6b9879" transform="matrix(5.53015301530153,0,0,5.53015301530153,1.037405685193903,138.76809026398817)" stroke="#a4ba7c" stroke-width="0.2"><path d="M8.16-14.22L8.16 0L4.86 0L4.86-10.51L1.62-9.56L1.62-12.06L7.86-14.22L8.16-14.22ZM15.26-6.34L12.65-6.95L13.52-14.22L21.83-14.22L21.83-11.66L16.19-11.66L15.87-8.84Q16.22-9.04 16.79-9.20Q17.36-9.36 17.91-9.36L17.91-9.36Q20.03-9.36 21.17-8.10Q22.30-6.85 22.30-4.58L22.30-4.58Q22.30-3.21 21.69-2.10Q21.08-1.00 19.98-0.40Q18.88 0.20 17.37 0.20L17.37 0.20Q16.04 0.20 14.86-0.36Q13.69-0.91 13.03-1.87Q12.36-2.83 12.37-4.04L12.37-4.04L15.67-4.04Q15.72-3.26 16.17-2.80Q16.62-2.34 17.35-2.34L17.35-2.34Q19.01-2.34 19.01-4.80L19.01-4.80Q19.01-7.08 16.98-7.08L16.98-7.08Q15.83-7.08 15.26-6.34L15.26-6.34ZM32.72-14.22L32.72-5.56L34.17-5.56L34.17-3.02L32.72-3.02L32.72 0L29.43 0L29.43-3.02L23.94-3.02L23.74-5.03L29.43-14.19L29.43-14.22L32.72-14.22ZM29.23-9.60L26.88-5.56L29.43-5.56L29.43-9.93L29.23-9.60Z"></path></g></g></svg>